<svg width="52" height="52" viewBox="0 0 52 52" fill="none" xmlns="http://www.w3.org/2000/svg">
<path fill-rule="evenodd" clip-rule="evenodd" d="M42.0309 46.4712C48.1003 41.7115 52 34.3112 52 26C52 11.6406 40.3594 0 26 0C11.6406 0 0 11.6406 0 26C0 26.4158 0.00975914 26.8293 0.0290608 27.2403H8.10436L14.4975 16.0482L16.0038 13.4112L17.1824 16.2101L23.5592 31.3534L31.7122 8.49606L33.5437 3.36136L34.5967 8.71025L42.0309 46.4712ZM39.3379 48.3228C35.4383 50.6578 30.8759 52 26 52C13.0845 52 2.36857 42.5828 0.344046 30.2403H8.975H9.84564L10.2775 29.4843L15.5962 20.1732L22.2926 36.0756L23.7908 39.6336L25.0878 35.9974L32.7063 14.6386L39.3379 48.3228Z" fill="#017B39"/>
</svg>
